<svg xmlns="http://www.w3.org/2000/svg" width="1338.189" height="1612.021" viewBox="0 0 1338.189 1612.021">
  <g id="Layer_2" data-name="Layer 2" transform="translate(0.002 11.253)">
    <g id="Layer_1" data-name="Layer 1" transform="translate(-0.002 -11.253)">
      <path id="Trazado_670" data-name="Trazado 670" d="M211.014,156.419C79.858,238.912-13.033,387.1,1.493,526.779,16.344,666.134,138.651,797.271,180.662,962.564s4.109,365.295,74.275,467.035c69.821,102.085,248.474,106.5,394.041,61.621,145.988-44.553,259.12-138.4,384.886-222.461,125.766-83.755,263.936-158.01,296.429-265.14,32.493-106.806-40.769-246.563-120.414-350.75C1130.558,548.262,1044.3,479.378,955.193,383.008S773.807,163.07,642.976,109.687C511.839,56.265,342.132,73.639,211.014,156.419Z" transform="translate(0.002 93.646)" fill="#f2f2f2"/>
      <line id="Línea_70" data-name="Línea 70" y1="494.081" x2="27.714" transform="translate(572.45 675.72)" fill="none" stroke="#333" stroke-linecap="round" stroke-miterlimit="10" stroke-width="3"/>
      <line id="Línea_71" data-name="Línea 71" y1="443.43" x2="334.484" transform="translate(572.45 726.37)" fill="none" stroke="#333" stroke-linecap="round" stroke-miterlimit="10" stroke-width="3"/>
      <line id="Línea_72" data-name="Línea 72" y1="774.092" x2="355.509" transform="translate(572.45 395.709)" fill="none" stroke="#333" stroke-linecap="round" stroke-miterlimit="10" stroke-width="3"/>
      <ellipse id="Elipse_38" data-name="Elipse 38" cx="193.045" cy="150.441" rx="193.045" ry="150.441" transform="translate(797.018 398.565) rotate(-70.01)" fill="#aaa"/>
      <ellipse id="Elipse_39" data-name="Elipse 39" cx="193.045" cy="150.441" rx="193.045" ry="150.441" transform="translate(458.633 708.72) rotate(-86.01)" fill="#aaa"/>
      <ellipse id="Elipse_40" data-name="Elipse 40" cx="214.07" cy="180.621" rx="214.07" ry="180.621" transform="translate(748.291 657.221) rotate(-64.05)" fill="#aaa"/>
      <ellipse id="Elipse_41" data-name="Elipse 41" cx="184.176" cy="152.525" rx="184.176" ry="152.525" transform="translate(544.684 364.165) rotate(-81.35)" fill="#aaa"/>
      <ellipse id="Elipse_42" data-name="Elipse 42" cx="178.595" cy="132.532" rx="178.595" ry="132.532" transform="translate(614.967 587.034) rotate(-73.12)" fill="#dfdfdf"/>
      <path id="Trazado_671" data-name="Trazado 671" d="M337.612,364.1l17.2,40.406a7.359,7.359,0,0,1-7.645,10.169l-43.56-5.371a7.339,7.339,0,0,1-4.969-11.716l26.434-35.035a7.34,7.34,0,0,1,12.538,1.548Z" transform="translate(270.81 349.312)" fill="#aaa"/>
      <line id="Línea_73" data-name="Línea 73" x1="63.074" y1="709.106" transform="translate(509.376 460.695)" fill="none" stroke="#333" stroke-linecap="round" stroke-miterlimit="10" stroke-width="3"/>
      <line id="Línea_74" data-name="Línea 74" y1="561.933" x2="168.198" transform="translate(572.45 607.868)" fill="none" stroke="#333" stroke-linecap="round" stroke-miterlimit="10" stroke-width="3"/>
      <path id="Trazado_672" data-name="Trazado 672" d="M412.949,309.758l10.015,42.756a7.34,7.34,0,0,1-9.289,8.678l-42.049-12.749a7.339,7.339,0,0,1-2.886-12.386l32.034-29.989a7.339,7.339,0,0,1,12.175,3.689Z" transform="translate(333.93 298.626)" fill="#dfdfdf"/>
      <path id="Trazado_673" data-name="Trazado 673" d="M506.2,368.628l-3.058,43.77a7.34,7.34,0,0,1-11.468,5.581l-36.315-24.542a7.339,7.339,0,0,1,.9-12.691l39.431-19.228a7.34,7.34,0,0,1,10.512,7.11Z" transform="translate(412.034 350.307)" fill="#aaa"/>
      <ellipse id="Elipse_43" data-name="Elipse 43" cx="180.621" cy="214.07" rx="180.621" ry="214.07" transform="matrix(0.997, -0.08, 0.08, 0.997, 296.869, 69.734)" fill="#dfdfdf"/>
      <path id="Trazado_674" data-name="Trazado 674" d="M284.614,233.709l24.847,36.124a7.359,7.359,0,0,1-5.447,11.468l-43.674,3.613a7.359,7.359,0,0,1-7.225-10.474L271.942,234.8a7.34,7.34,0,0,1,12.672-1.089Z" transform="translate(230.038 231.63)" fill="#dfdfdf"/>
      <rect id="Rectángulo_178" data-name="Rectángulo 178" width="379.018" height="423.495" transform="translate(398.079 1520.54) rotate(-78.76)" fill="#fff"/>
      <path id="Trazado_675" data-name="Trazado 675" d="M284.354,592.633l412.18,81.92-73.262,368.563-412.18-81.939,73.261-368.544m-2.561-3.823L207.27,963.8,625.853,1047,700.4,672.049,281.812,588.868Z" transform="translate(188.898 558.112)"/>
      <path id="Trazado_676" data-name="Trazado 676" d="M263.08,718.819,681.625,802l-16.8-130.009L246.26,588.81Z" transform="translate(224.431 558.112)"/>
      <path id="Trazado_677" data-name="Trazado 677" d="M81.89,938.818l239.644,47.63,74.523-374.928L156.432,563.89Z" transform="translate(74.634 535.402)"/>
      <path id="Trazado_678" data-name="Trazado 678" d="M88.92,675.843,151.325,564.89l235.821,46.866L324.741,722.709Z" transform="translate(81.041 536.313)" fill="#fff"/>
      <path id="Trazado_679" data-name="Trazado 679" d="M153.35,567.571l232.476,46.178L325.1,721.721,92.627,675.543,153.35,567.571m-1.682-3.631L87.6,677.856,326.785,725.39l64.068-113.916L151.687,563.94Z" transform="translate(79.838 535.447)"/>
      <rect id="Rectángulo_179" data-name="Rectángulo 179" width="99.046" height="112.769" transform="translate(653.964 1573.107) rotate(-168.76)" fill="#dfdfdf"/>
      <rect id="Rectángulo_180" data-name="Rectángulo 180" width="149.161" height="82.321" transform="translate(598.214 1405.84) rotate(-168.76)" fill="#dfdfdf"/>
      <rect id="Rectángulo_181" data-name="Rectángulo 181" width="33.716" height="59.806" transform="translate(587.31 1391.403) rotate(-168.76)"/>
      <rect id="Rectángulo_182" data-name="Rectángulo 182" width="84.252" height="11.392" transform="translate(556.607 1336.271) rotate(-168.76)"/>
      <rect id="Rectángulo_183" data-name="Rectángulo 183" width="84.252" height="11.392" transform="translate(552.786 1355.388) rotate(-168.76)"/>
    </g>
  </g>
</svg>
