<svg xmlns="http://www.w3.org/2000/svg" width="2377.47" height="1725.487" viewBox="0 0 2377.47 1725.487">
  <g id="DrawKit_Vector_Illustration_Team_Work_4_" data-name="DrawKit Vector Illustration Team Work (4)" transform="translate(-72.48 -62.053)">
    <g id="background" transform="translate(73.48 78.088)">
      <path id="Trazado_495" data-name="Trazado 495" d="M135.54,522.694H334.005a39.54,39.54,0,0,0,39.5-39.54h0a39.5,39.5,0,0,0-39.5-39.5H135.54A39.54,39.54,0,0,0,96,483.154h0A39.54,39.54,0,0,0,135.54,522.694Z" transform="translate(1920.043 925.636)" fill="none" stroke="#ddd" stroke-miterlimit="10" stroke-width="1"/>
      <rect id="Rectángulo_122" data-name="Rectángulo 122" width="211.087" height="103.125" rx="14.17" transform="translate(1492.671 587.102)" fill="none" stroke="#ddd" stroke-miterlimit="10" stroke-width="1"/>
      <path id="Trazado_496" data-name="Trazado 496" d="M387.277,170.744H585.742a39.5,39.5,0,0,0,39.5-39.5h0a39.5,39.5,0,0,0-39.5-39.54H387.277A39.54,39.54,0,0,0,347.7,131.24h0a39.54,39.54,0,0,0,39.577,39.5Z" transform="translate(752.733 -2.653)" fill="none" stroke="#ddd" stroke-miterlimit="10" stroke-width="1"/>
      <path id="Trazado_497" data-name="Trazado 497" d="M551.243,435.416H711.3a17.933,17.933,0,0,0,17.933-17.933h0A17.933,17.933,0,0,0,711.3,399.55H551.243a17.933,17.933,0,0,0-17.933,17.933h0A17.933,17.933,0,0,0,551.243,435.416Z" transform="translate(-26.416 809.319)" fill="none" stroke="#ddd" stroke-miterlimit="10" stroke-width="1"/>
      <path id="Trazado_498" data-name="Trazado 498" d="M188.2,179.456H348.256a17.933,17.933,0,0,0,17.933-17.933h0a17.933,17.933,0,0,0-17.933-17.933H188.2a17.933,17.933,0,0,0-17.933,17.933h0A17.933,17.933,0,0,0,188.2,179.456Z" transform="translate(1657.202 134.21)" fill="none" stroke="#ddd" stroke-miterlimit="10" stroke-width="1"/>
      <path id="Trazado_499" data-name="Trazado 499" d="M832.642,91.639c-48.6,23.244-80.645-3.638-108.8-17.1a56.71,56.71,0,0,0-70.023,17.1L656,196.328s39.758-14.114,62.384,0,49.689,48.889,114.328,1.928Z" transform="translate(-568.265 -62.757)" fill="#ededed" stroke="#ddd" stroke-linecap="round" stroke-linejoin="round" stroke-width="2"/>
      <path id="Trazado_500" data-name="Trazado 500" d="M712.629,530.463h0a10.149,10.149,0,0,0,10.149-10.112V77.332A10.112,10.112,0,0,0,712.629,67.22h0A10.113,10.113,0,0,0,702.48,77.332V520.35a10.149,10.149,0,0,0,10.149,10.112Z" transform="translate(-635.331 -67.22)" fill="#f9f9f9" stroke="#ededed" stroke-linecap="round" stroke-linejoin="round" stroke-width="2"/>
      <line id="Línea_33" data-name="Línea 33" x1="153.796" transform="translate(0 466.589)" fill="none" stroke="#ddd" stroke-linecap="round" stroke-linejoin="round" stroke-width="2"/>
      <path id="Trazado_501" data-name="Trazado 501" d="M591.17,242.79h61.8V374.179H810.26V525.792" transform="translate(-317.917 395.856)" fill="none" stroke="#ddd" stroke-linecap="round" stroke-linejoin="round" stroke-width="2"/>
      <path id="Trazado_502" data-name="Trazado 502" d="M73.48,477.54H230.8V607.91H464.663v85.519H943.438" transform="translate(1432.032 1015.022)" fill="none" stroke="#ddd" stroke-linecap="round" stroke-linejoin="round" stroke-width="2"/>
      <path id="Trazado_503" data-name="Trazado 503" d="M321.06,355.63V464.138H518.434V581.049h196.9v117.2H911.727V799.085" transform="translate(563.157 693.478)" fill="none" stroke="#ededed" stroke-linecap="round" stroke-linejoin="round" stroke-width="2"/>
      <path id="Trazado_504" data-name="Trazado 504" d="M499.47,321.22H664.142V446.388h124.4" transform="translate(37.361 602.719)" fill="none" stroke="#ddd" stroke-linecap="round" stroke-linejoin="round" stroke-width="2"/>
      <path id="Trazado_505" data-name="Trazado 505" d="M135.54,522.694H334.005a39.54,39.54,0,0,0,39.5-39.54h0a39.5,39.5,0,0,0-39.5-39.5H135.54A39.54,39.54,0,0,0,96,483.154h0A39.54,39.54,0,0,0,135.54,522.694Z" transform="translate(1920.043 925.636)" fill="none" stroke="#ddd" stroke-miterlimit="10" stroke-width="1"/>
      <rect id="Rectángulo_123" data-name="Rectángulo 123" width="211.087" height="103.125" rx="14.17" transform="translate(1492.671 587.102)" fill="none" stroke="#ddd" stroke-miterlimit="10" stroke-width="1"/>
      <path id="Trazado_506" data-name="Trazado 506" d="M387.277,170.744H585.742a39.5,39.5,0,0,0,39.5-39.5h0a39.5,39.5,0,0,0-39.5-39.54H387.277A39.54,39.54,0,0,0,347.7,131.24h0a39.54,39.54,0,0,0,39.577,39.5Z" transform="translate(752.733 -2.653)" fill="none" stroke="#ddd" stroke-miterlimit="10" stroke-width="1"/>
      <path id="Trazado_507" data-name="Trazado 507" d="M551.243,435.416H711.3a17.933,17.933,0,0,0,17.933-17.933h0A17.933,17.933,0,0,0,711.3,399.55H551.243a17.933,17.933,0,0,0-17.933,17.933h0A17.933,17.933,0,0,0,551.243,435.416Z" transform="translate(-26.416 809.319)" fill="none" stroke="#ddd" stroke-miterlimit="10" stroke-width="1"/>
      <path id="Trazado_508" data-name="Trazado 508" d="M188.2,179.456H348.256a17.933,17.933,0,0,0,17.933-17.933h0a17.933,17.933,0,0,0-17.933-17.933H188.2a17.933,17.933,0,0,0-17.933,17.933h0A17.933,17.933,0,0,0,188.2,179.456Z" transform="translate(1657.202 134.21)" fill="none" stroke="#ddd" stroke-miterlimit="10" stroke-width="1"/>
      <path id="Trazado_509" data-name="Trazado 509" d="M832.642,91.639c-48.6,23.244-80.645-3.638-108.8-17.1a56.71,56.71,0,0,0-70.023,17.1L656,196.328s39.758-14.114,62.384,0,49.689,48.889,114.328,1.928Z" transform="translate(-568.265 -62.757)" fill="#d83535" stroke="#d83535" stroke-linecap="round" stroke-linejoin="round" stroke-width="2"/>
      <path id="Trazado_510" data-name="Trazado 510" d="M712.629,530.463h0a10.149,10.149,0,0,0,10.149-10.112V77.332A10.112,10.112,0,0,0,712.629,67.22h0A10.113,10.113,0,0,0,702.48,77.332V520.35a10.149,10.149,0,0,0,10.149,10.112Z" transform="translate(-635.331 -67.22)" fill="#fff" stroke="#000" stroke-linecap="round" stroke-linejoin="round" stroke-width="2"/>
      <line id="Línea_34" data-name="Línea 34" x1="153.796" transform="translate(0 466.589)" fill="none" stroke="#000" stroke-linecap="round" stroke-linejoin="round" stroke-width="2"/>
      <path id="Trazado_511" data-name="Trazado 511" d="M591.17,242.79h61.8V374.179H810.26V525.792" transform="translate(-317.917 395.856)" fill="rgba(0,0,0,0)" stroke="#000" stroke-linecap="round" stroke-linejoin="round" stroke-width="2"/>
      <path id="Trazado_512" data-name="Trazado 512" d="M73.48,477.54H230.8V607.91H464.663v85.519H943.438" transform="translate(1432.032 1015.022)" fill="none" stroke="#fff" stroke-linecap="round" stroke-linejoin="round" stroke-width="2"/>
      <path id="Trazado_513" data-name="Trazado 513" d="M321.06,355.63V464.138H518.434V581.049h196.9v117.2H911.727V799.085" transform="translate(563.157 693.478)" fill="none" stroke="#fff" stroke-linecap="round" stroke-linejoin="round" stroke-width="2"/>
      <path id="Trazado_514" data-name="Trazado 514" d="M499.47,321.22H664.142V446.388h124.4" transform="translate(37.361 602.719)" fill="none" stroke="#fff" stroke-linecap="round" stroke-linejoin="round" stroke-width="2"/>
    </g>
    <g id="Man_R" data-name="Man R" transform="translate(346.733 63.1)">
      <g id="head" transform="translate(319.517 43.858)">
        <path id="Trazado_515" data-name="Trazado 515" d="M519.536,121.008s.727,1.673,2.037,4.511,2.583,5.347,4.474,8.912c1.273,2.474,2.692,5.129,4.292,7.93.946,1.71,1.964,3.638,3.056,5.274l1.055,1.71c2.4,3.965,5.056,8.075,7.966,12.113,2.037,2.837,4.183,5.675,6.438,8.4,17.679,21.425,32.52,12.44,32.52,12.44a44.48,44.48,0,0,1,10.149,12.8,77.4,77.4,0,0,1,7.711,21.207c41.723,30.41,68.2-9.676,55.8-45.324a312.287,312.287,0,0,1-44.887-52.854c13.459-17.9-8.949-33.5-19.243-23.244l-22.3-10.331C521.609,72.119,519.536,121.008,519.536,121.008Z" transform="translate(-497.959 -55.702)" fill="#febd9d"/>
        <path id="Trazado_516" data-name="Trazado 516" d="M544.314,87.17c-5.893,0-10.913,2.4-9.785,11.458" transform="translate(-438.128 -43.471)" fill="none" stroke="#ef8a66" stroke-linecap="round" stroke-linejoin="round" stroke-width="0.75"/>
        <path id="Trazado_517" data-name="Trazado 517" d="M538.566,98.232c8.548-5.311,1.055-12.295-3.638-7.894" transform="translate(-438.308 -38.782)" fill="none" stroke="#ef8a66" stroke-linecap="round" stroke-linejoin="round" stroke-width="0.75"/>
        <path id="Trazado_518" data-name="Trazado 518" d="M543.317,115.862c6.147-1.928,8.8-9.712,7.275-16.442C566.961,110.842,554.739,124.374,543.317,115.862Z" transform="translate(-484.892 -11.161)" fill="#fff" stroke="#ef8a66" stroke-linecap="round" stroke-linejoin="round" stroke-width="0.75"/>
        <path id="Trazado_519" data-name="Trazado 519" d="M569.9,118.553c-5.529,0-10.367.946-11.677-9.494A18.516,18.516,0,0,0,548.66,94.8" transform="translate(-515.697 -23.346)" fill="none" stroke="#ef8a66" stroke-linecap="round" stroke-linejoin="round" stroke-width="0.75"/>
        <path id="Trazado_520" data-name="Trazado 520" d="M540.8,92.32a16.987,16.987,0,0,1-8.076,6.111" transform="translate(-428.607 -29.887)" fill="none" stroke="#ef8a66" stroke-linecap="round" stroke-linejoin="round" stroke-width="0.75"/>
        <path id="Trazado_521" data-name="Trazado 521" d="M555.815,98.638A3.638,3.638,0,1,1,552.177,95,3.638,3.638,0,0,1,555.815,98.638Z" transform="translate(-501.173 -22.819)" fill="#683f1d"/>
        <path id="Trazado_522" data-name="Trazado 522" d="M552.75,100.451c.946,1.71,1.964,3.638,3.056,5.274h.255a3.638,3.638,0,1,0-3.31-5.274Z" transform="translate(-520.369 -13.719)" fill="#683f1d"/>
        <path id="Trazado_523" data-name="Trazado 523" d="M537.654,137.007c.291,5.929,5.747,11.858,14.95,12,8.548,0,14.841-9.639,13.423-19.134,0,0,14.55,3.383,16.987-15.569,0,0,11.858,9.676,18.188-6.038a152.227,152.227,0,0,1,19.57,20.88c7.275,10.185,10.912,8.767,11.131,4.438s-4.329-11.495-4.875-12.368h0a13.389,13.389,0,0,1,3.638-6.875,289.759,289.759,0,0,0-22.3-27.682c-13.932-15.46-27.282-14.332-25.135-2.619-14.332-8.876-34.266,2.583-24.845,20.37-13.277-3.638-27.755,12.368-13.859,22.08A10.912,10.912,0,0,0,537.654,137.007Z" transform="translate(-537.648 -75.157)" fill="#604730"/>
        <path id="Trazado_524" data-name="Trazado 524" d="M565.347,93.092c1.746,5.274-14.55,10.913-16.987,5.456S563.128,86.217,565.347,93.092Z" transform="translate(-509.322 -35.46)" fill="#604730"/>
        <path id="Trazado_525" data-name="Trazado 525" d="M554.361,96.408c1.091,2.292,2.583,5.347,4.474,8.912,3.237-3.638,6.22-8.439,5.165-10.294C562.327,92.08,557.78,94.153,554.361,96.408Z" transform="translate(-530.747 -26.591)" fill="#604730"/>
        <path id="Trazado_526" data-name="Trazado 526" d="M534.573,125.377a44.488,44.488,0,0,1,10.149,12.8c21.1-15.9,7.675-34.011,7.675-34.011a47.071,47.071,0,0,1-17.824,21.207Z" transform="translate(-451.158 1.368)" fill="#f4a789"/>
        <path id="Trazado_527" data-name="Trazado 527" d="M537.648,124.08c.291,5.929,5.748,11.858,14.95,12,8.548,0,14.841-9.64,13.423-19.134,0,0,14.55,3.383,16.987-15.569,0,0,11.859,9.676,18.188-6.038a152.2,152.2,0,0,1,19.57,20.88c7.275,10.185,10.912,8.767,11.131,4.438s-4.328-11.495-4.874-12.368h0a34.047,34.047,0,0,1-11.494-11.64c-9.24-13.786-18.734-22.3-26.918-12.113s-17.642,0-21.243,12.331C563.948,108.694,556.236,126.918,537.648,124.08Z" transform="translate(-537.641 -62.23)" fill="#473526"/>
        <path id="Trazado_528" data-name="Trazado 528" d="M546.557,76.59c-.473,10.658,8.948,23.462,8.948,23.462" transform="translate(-493.588 -71.376)" fill="none" stroke="#896442" stroke-linecap="round" stroke-linejoin="round" stroke-width="0.75"/>
        <path id="Trazado_529" data-name="Trazado 529" d="M570.706,94.786A27.535,27.535,0,0,0,551.9,81" transform="translate(-528.286 -59.744)" fill="none" stroke="#896442" stroke-linecap="round" stroke-linejoin="round" stroke-width="0.75"/>
        <path id="Trazado_530" data-name="Trazado 530" d="M573.793,92.546a30.374,30.374,0,0,0-17.533-4.4" transform="translate(-547.233 -41.026)" fill="none" stroke="#896442" stroke-linecap="round" stroke-linejoin="round" stroke-width="0.75"/>
        <path id="Trazado_531" data-name="Trazado 531" d="M548.053,84a12.986,12.986,0,0,0-7.6,9.6" transform="translate(-463.982 -51.832)" fill="none" stroke="#896442" stroke-linecap="round" stroke-linejoin="round" stroke-width="0.75"/>
        <path id="Trazado_532" data-name="Trazado 532" d="M547.485,114.1c4.838,1.346,10.112-2.655,11.822-8.876s-.836-12.368-5.674-13.677-10.149,2.655-11.822,8.876S542.756,112.795,547.485,114.1Z" transform="translate(-478.874 -32.574)" fill="#f4af90"/>
        <path id="Trazado_533" data-name="Trazado 533" d="M551.17,100.9c2.4,3.965,5.056,8.075,7.966,12.113a6.538,6.538,0,0,0,.618-2.073A10.185,10.185,0,0,0,551.17,100.9Z" transform="translate(-514.679 -7.257)" fill="#f4af90"/>
      </g>
      <g id="waist" transform="translate(286.463 326.618)">
        <path id="Trazado_534" data-name="Trazado 534" d="M483.643,333.1c5.347,49.071,41.8,25.463,92.685,18.7l28.228-1.128L792.29,343.4l15.678-.618L753.4,188.91C632.747,224.7,476.877,270.61,483.643,333.1Z" transform="translate(-483.43 -57.885)" fill="#fed81d"/>
        <path id="Trazado_535" data-name="Trazado 535" d="M487.74,316.175,675.474,308.9l-5.6-41.032-25.645-65.84s-43.287-2.619-30.119,35.248,7.893,64.712-60.493,46.852C512.293,273.251,494.979,296.277,487.74,316.175Z" transform="translate(-366.615 -23.388)" fill="#fcc71f"/>
        <path id="Trazado_536" data-name="Trazado 536" d="M448.217,226.041c31.974,41.65,49.289,131.9,53.29,186.061,2.874,38.995,8.73,139.428,23.39,223.419h0c50.6,108.508,120.33,57.255,116.4-19.206v-.4c-6.8-56.018-3.637-103.961,2.583-124,8.439-26.627,29.282-115.383,32.738-151.8C684.4,260.089,666.4,191.848,640.244,152.89Z" transform="translate(-225.822 -152.89)" fill="#fed81d"/>
        <path id="Trazado_537" data-name="Trazado 537" d="M513.318,318.861c-.764-10.913-1.419-20.116-1.928-27.282a594.482,594.482,0,0,0-15.06-92.94" transform="translate(-235.704 -32.222)" fill="none" stroke="#f7ad2b" stroke-linecap="round" stroke-linejoin="round" stroke-width="0.75"/>
        <path id="Trazado_538" data-name="Trazado 538" d="M481.135,168.81c29.464,198.174-27.209,272.817-18.588,383.835a562.878,562.878,0,0,0,16.769,90.575" transform="translate(-85.92 -110.9)" fill="none" stroke="#f7ad2b" stroke-linecap="round" stroke-linejoin="round" stroke-width="0.75"/>
        <path id="Trazado_539" data-name="Trazado 539" d="M496.958,255.656A129.754,129.754,0,0,1,461.71,171.41" transform="translate(-93.413 -104.043)" fill="none" stroke="#f7ad2b" stroke-linecap="round" stroke-linejoin="round" stroke-width="0.75"/>
        <path id="Trazado_540" data-name="Trazado 540" d="M511.447,181.23s9.239,42.559,12.95,54.563c0,0-12.95,2.073-17.569-6.075s-13.277-43.651-13.277-43.651" transform="translate(-236.671 -78.142)" fill="none" stroke="#f7ad2b" stroke-linecap="round" stroke-linejoin="round" stroke-width="0.75"/>
      </g>
      <g id="torso" transform="translate(346.041 130.821)">
        <path id="Trazado_541" data-name="Trazado 541" d="M525.168,210.415,543.72,289.35c5.092,26.081,6.475,47.288,9.348,62.711,3.965,21.534,10.913,32.447,34.229,31.21h0l.946-.255,3.347-.909,2.219-.655,2.91-.982c1.273-.473,2.51-.946,3.638-1.455a64.9,64.9,0,0,0,6.184-2.874l2.182-1.2a60.117,60.117,0,0,0,9.13-6.293,18.915,18.915,0,0,0,1.6-1.382,54.563,54.563,0,0,0,10.73-12.768,43.958,43.958,0,0,0,2.219-4,54.571,54.571,0,0,0,4.147-10.913c.182-.655.328-1.273.473-1.892s.328-1.455.436-2.146.219-1.237.328-1.855a41.6,41.6,0,0,0,.4-9.64c-1.237-13.313-17.715-150.668-17.715-150.668l-6.038-14.914-8.075-19.97Z" transform="translate(-525.168 4.953)" fill="#c3dcf8"/>
        <path id="Trazado_542" data-name="Trazado 542" d="M525.148,337.581c3.965,21.534,10.913,32.447,34.229,31.21h0l1.018-.255,3.347-.909,2.219-.655,2.91-.982c1.273-.473,2.51-.946,3.638-1.455a64.911,64.911,0,0,0,6.184-2.874l2.182-1.2a60.112,60.112,0,0,0,9.13-6.293,18.955,18.955,0,0,0,1.6-1.382,54.563,54.563,0,0,0,10.731-12.768,43.793,43.793,0,0,0,2.219-4A54.546,54.546,0,0,0,608.7,325.1c.182-.655.328-1.273.473-1.892s.327-1.455.436-2.146.219-1.237.328-1.855a41.6,41.6,0,0,0,.4-9.64C609.1,296.258,592.625,158.9,592.625,158.9l-6.038-14.914c-13.059,24.99-28.518,65.476-10.513,93.012,27.718,42.414,23.644,111.237-31.319,102.288A127.667,127.667,0,0,0,525.148,337.581Z" transform="translate(-497.248 19.433)" fill="#a7caf0"/>
        <path id="Trazado_543" data-name="Trazado 543" d="M441.71,251.8q7.275,5.675,14.55,12.222c46.415,42.159,88.574,109.127,100.469,116.4,17.133,10.258,57.291,4.365,95.813-5.42a595.975,595.975,0,0,0,84.974-28.046c23.316-10.913,29.1-17.642,25.208-26.3s-27.063-62.748-27.063-62.748l5.711-5.638,63.185-62.275c-37.431-28.228-86.428-59.765-131.425-77.3-30.519-11.858-59.147-17.242-81.081-10.913Z" transform="translate(-387.838 -98.958)" fill="#c3dcf8"/>
        <path id="Trazado_544" data-name="Trazado 544" d="M477.87,251.9q7.275,5.675,14.55,12.222c48.816.8,95.377,34.048,136.517-1.673,50.926-44.2,4.838-76.934,36.376-120.039a85.848,85.848,0,0,1,43.869-29.755C678.663,100.8,650.036,95.413,628.1,101.743Z" transform="translate(-423.998 -99.063)" fill="#d0e5f7"/>
        <path id="Trazado_545" data-name="Trazado 545" d="M464.3,298.4a595.983,595.983,0,0,0,84.973-28.046c23.317-10.913,29.1-17.642,25.208-26.3s-27.063-62.748-27.063-62.748l5.711-5.638c-18.188-19.134-43.4-45.688-44.778-47.288-2.219-2.619-55.436,15.132-55.436,15.132S454.7,203.06,503.4,208.735s40.013,44.451-3.165,49.725C472.483,261.77,465.644,283.3,464.3,298.4Z" transform="translate(-199.63 -22.432)" fill="#a7caf0"/>
        <path id="Trazado_546" data-name="Trazado 546" d="M594.36,146.04c77.152,44.778,11.713,197.738-158.343,45C418.084,105.081,514.7,94.277,594.36,146.04Z" transform="translate(-181.134 -57.66)" fill="#a7caf0"/>
        <path id="Trazado_547" data-name="Trazado 547" d="M530.68,141.08a312.848,312.848,0,0,1,39.213,37.139" transform="translate(-476.808 11.758)" fill="none" stroke="#83addf" stroke-linecap="round" stroke-linejoin="round" stroke-width="0.75"/>
      </g>
      <g id="leg" transform="translate(583.974 736.886)">
        <path id="Trazado_548" data-name="Trazado 548" d="M558.979,364.18s32.738,42.741,28.082,77.407H431.155s69.332-40.522,72.933-70.2Z" transform="translate(-370.336 -5.869)" fill="#683f1d"/>
        <path id="Trazado_549" data-name="Trazado 549" d="M434,328.873h0c.509,3.128,1.018,6.22,1.564,9.276h0c5.675,32.738,12.695,62.784,21.389,85.883,31.1,82.573,83.664,211.742,83.664,211.742l100.214-8.33C633.556,607.91,597.181,524.938,562.3,376.2a520.588,520.588,0,0,1-10.149-57.546c-.182-1.382-.327-2.8-.473-4.183h0C544.145,269.4,448.732,226,434,328.873Z" transform="translate(-434 -265.677)" fill="#fed81d"/>
        <path id="Trazado_550" data-name="Trazado 550" d="M442.43,267.1c0,8.585.182,17.315.873,26.3,8.657,111.091,96.4,328.581,97.086,332.873" transform="translate(-364.223 -261.923)" fill="none" stroke="#f7ad2b" stroke-linecap="round" stroke-linejoin="round" stroke-width="0.75"/>
      </g>
      <g id="leg-2" data-name="leg" transform="translate(263.541 545.143)">
        <path id="Trazado_551" data-name="Trazado 551" d="M668.579,299.93s14.841,42.778,10.367,77.444H540.719s69.3-40.522,72.751-70.241Z" transform="translate(-540.719 16.411)" fill="#683f1d"/>
        <path id="Trazado_552" data-name="Trazado 552" d="M540.709,298.83c11.386,85.192,33.174,242.552,33.174,242.552h90.538L634.558,288.354c-.4-44.051-30.3-90.939-60.856-70.423C531.615,246.377,538.49,282.206,540.709,298.83Z" transform="translate(-518.738 -212.965)" fill="#fed81d"/>
      </g>
      <g id="hnad" transform="translate(215.125 421.849)">
        <path id="Trazado_553" data-name="Trazado 553" d="M525.987,279.486s36.376,1.31,79.044,1.31c35.175,0,74.57-.873,101.015-4.147,2.037-.255,4-.546,5.929-.909a12.43,12.43,0,0,0,2.583-.473c.837-.182,1.455-.255,2.182-.436,1.273-.255,2.51-.582,3.638-.873l3.637-1.055.837-.255,3.092-1.055.546-.182,3.637-1.382a.87.87,0,0,0,.364-.182c41.25-26.263,42.487-55.109,19.97-72.751-15.823-12.586-43.432-19.643-77.152-16.551L532.28,209.172Z" transform="translate(-525.987 -177.089)" fill="#c3dcf8"/>
        <path id="Trazado_554" data-name="Trazado 554" d="M525.987,268.27c35.175,0,74.57-.873,101.015-4.147,2.037-.255,4-.546,5.929-.909a12.432,12.432,0,0,0,2.583-.473c.837-.182,1.455-.255,2.182-.436,1.273-.255,2.51-.582,3.638-.873l3.637-1.055.837-.255,3.092-1.055.545-.182,3.638-1.382a.873.873,0,0,0,.364-.182c41.25-26.263,42.487-55.109,19.97-72.751.364,29.1-14.15,53.363-48.088,47.834C578.841,224.62,538.646,243.1,525.987,268.27Z" transform="translate(-446.943 -164.563)" fill="#a7caf0"/>
        <path id="Trazado_555" data-name="Trazado 555" d="M543.18,182.453a289.407,289.407,0,0,1,29.1-3.383" transform="translate(-393.749 -179.07)" fill="none" stroke="#83addf" stroke-linecap="round" stroke-linejoin="round" stroke-width="0.75"/>
      </g>
      <g id="pencil">
        <path id="Trazado_556" data-name="Trazado 556" d="M469.117,716.734l41.8-16.405,63.221-24.881S894.6,358.216,1048.107,205.839c42.232-41.941,71.842-71.369,78.644-78.28,22.625-23.062-30.956-83.664-59.583-58.419-2.219,2-31.937,30.81-76.607,74.279C837.092,292.558,506.766,614.7,506.766,614.7l-22.116,59.8Z" transform="translate(-469.117 -63.1)" fill="#f9f9f9" stroke="#ddd" stroke-linecap="round" stroke-linejoin="round" stroke-width="2"/>
        <line id="Línea_35" data-name="Línea 35" x1="411.99" y2="398.567" transform="translate(83.082 146.195)" fill="none" stroke="#ededed" stroke-linecap="round" stroke-linejoin="round" stroke-width="1"/>
        <line id="Línea_36" data-name="Línea 36" x1="408.352" y2="395.075" transform="translate(104.289 173.149)" fill="none" stroke="#ededed" stroke-linecap="round" stroke-linejoin="round" stroke-width="1"/>
        <path id="Trazado_557" data-name="Trazado 557" d="M622.53,274.541a54.563,54.563,0,0,1,26.154,25.827L711.9,275.487s-1.746-21.061-25.1-17.824c5.02-13.641-5.056-29.1-22.3-17.97,0,0,3.637-22.225-19.861-24.954Z" transform="translate(-606.888 336.861)" fill="#f9f9f9" stroke="#ededed" stroke-linecap="round" stroke-linejoin="round" stroke-width="2"/>
        <path id="Trazado_559" data-name="Trazado 559" d="M469.117,143.418c19.17,20.77,40.2,43.651,57.546,62.42C568.9,163.9,598.5,134.47,605.307,127.558c22.626-23.062-30.955-83.664-59.583-58.419C543.505,71.14,513.786,99.95,469.117,143.418Z" transform="translate(52.327 -63.1)" fill="none" stroke="#ededed" stroke-linecap="round" stroke-linejoin="round" stroke-width="2"/>
        <line id="Línea_37" data-name="Línea 37" x2="58.892" y2="60.674" transform="translate(542.469 59.876)" fill="none" stroke="#ededed" stroke-linecap="round" stroke-linejoin="round" stroke-width="2"/>
        <path id="Trazado_560" data-name="Trazado 560" d="M651.722,212.317c-31.756-26.627-38.958-26.3-41.9-22.808s10.221,18.77,14.55,22.808c0,0-26.882-20.152-34.666-15.314s2.437,15.314,2.437,15.314-14.987-.255-5.347,15.86c0,0-7.784,0-3.237,8.039s32.483,27.209,42.668,22.335S667.072,225.23,651.722,212.317Z" transform="translate(-403.968 265.914)" fill="#febd9d"/>
        <path id="Trazado_561" data-name="Trazado 561" d="M642.887,201.223c-20.225-15.387-25.463-14.55-28.118-11.749s10.221,18.77,14.55,22.807c0,0-26.882-20.152-34.666-15.314s2.437,15.314,2.437,15.314-14.986-.255-5.347,15.86c0,0-7.785,0-3.238,8.039" transform="translate(-408.919 265.95)" fill="none" stroke="#ef8a66" stroke-linecap="round" stroke-linejoin="round" stroke-width="0.75"/>
        <line id="Línea_38" data-name="Línea 38" x2="28.373" y2="18.333" transform="translate(188.135 478.231)" fill="none" stroke="#ef8a66" stroke-linecap="round" stroke-linejoin="round" stroke-width="0.75"/>
        <line id="Línea_39" data-name="Línea 39" x1="26.19" y1="16.296" transform="translate(182.787 494.091)" fill="none" stroke="#ef8a66" stroke-linecap="round" stroke-linejoin="round" stroke-width="0.75"/>
        <line id="Línea_40" data-name="Línea 40" x2="8.221" y2="6.729" transform="translate(220.363 478.231)" fill="none" stroke="#ef8a66" stroke-linecap="round" stroke-linejoin="round" stroke-width="0.75"/>
        <path id="Trazado_558" data-name="Trazado 558" d="M639.91,273.412l41.8-16.405a54.563,54.563,0,0,0-26.154-25.827Z" transform="translate(-639.91 380.222)" fill="#ddd" stroke="#ddd" stroke-linecap="round" stroke-linejoin="round" stroke-width="2"/>
      </g>
      <g id="hand" transform="translate(448.832 127.109)">
        <path id="Trazado_562" data-name="Trazado 562" d="M492.5,164.706A88.684,88.684,0,0,1,493.666,120l32.047,15.278S514.036,167.288,492.5,164.706Z" transform="translate(-388.134 -40.13)" fill="#a7caf0"/>
        <path id="Trazado_563" data-name="Trazado 563" d="M627.887,137.208a210.554,210.554,0,0,1-26.736-4.438c-1.928-1.091-15.75-12.149-21.825-16.151s-30.774-19.97-33.1-18.479-3.165,8.73,1.273,14.041c0,0-26.954-11.458-38.594-12.841-9.494-1.128-7.639,7.821-1.273,11.931-10.185-4.511-22.3,0-8.512,9.821-9.312-1.6-14.15,5.565.436,16.114-8.075-4.438-13.568,1.6-6.147,9.13,12.077,12.295,36.921,21.825,44.778,24.808s57.655,14.041,76.971,24.954C615.156,196.1,631.779,166.236,627.887,137.208Z" transform="translate(-489.872 -98.043)" fill="#febd9d"/>
        <path id="Trazado_564" data-name="Trazado 564" d="M592.848,116.62c-6.147-4-30.774-19.97-33.1-18.479s-3.164,8.73,1.273,14.041c0,0-26.954-11.458-38.594-12.841-9.494-1.128-7.639,7.821-1.273,11.931-10.185-4.511-22.3,0-8.512,9.821-9.312-1.6-14.15,5.565.436,16.114-8.075-4.438-13.568,1.6-6.147,9.13" transform="translate(-503.43 -98.043)" fill="none" stroke="#ef8a66" stroke-linecap="round" stroke-linejoin="round" stroke-width="0.75"/>
        <line id="Línea_41" data-name="Línea 41" x2="13.932" y2="6.839" transform="translate(57.589 14.139)" fill="none" stroke="#ef8a66" stroke-linecap="round" stroke-linejoin="round" stroke-width="0.75"/>
        <line id="Línea_42" data-name="Línea 42" x2="28.518" y2="13.241" transform="translate(17.722 13.23)" fill="none" stroke="#ef8a66" stroke-linecap="round" stroke-linejoin="round" stroke-width="0.75"/>
        <line id="Línea_43" data-name="Línea 43" x2="30.956" y2="16.114" transform="translate(9.21 23.051)" fill="none" stroke="#ef8a66" stroke-linecap="round" stroke-linejoin="round" stroke-width="0.75"/>
        <line id="Línea_44" data-name="Línea 44" x2="24.263" y2="13.786" transform="translate(9.646 39.165)" fill="none" stroke="#ef8a66" stroke-linecap="round" stroke-linejoin="round" stroke-width="0.75"/>
        <path id="Trazado_565" data-name="Trazado 565" d="M452.2,106.08c49.8,5.056,139.646,19.97,207.013,68.713,26.081,18.843,25.681,98.214-45.506,91.63s-180.968-65-180.968-65S460.965,195.2,452.2,106.08Z" transform="translate(-328.478 -76.845)" fill="#c3dcf8"/>
        <path id="Trazado_566" data-name="Trazado 566" d="M598.519,257.693C533.443,239.506,461.71,201.42,461.71,201.42s28.118-6.22,19.461-95.34a561.641,561.641,0,0,1,112.255,22.589" transform="translate(-357.342 -76.845)" fill="none" stroke="#83addf" stroke-linecap="round" stroke-linejoin="round" stroke-width="0.75"/>
      </g>
    </g>
    <g id="Girl" transform="translate(1150.745 454.215)">
      <g id="body" transform="translate(13.644 138.796)">
        <path id="Trazado_567" data-name="Trazado 567" d="M295.621,324.858S398.818,557.188,450,653.184h0c85.264,60.092,98.541-1.746,84.973-51.508-5.893-12.3-23.208-67.222-41.323-129.242C478.3,419.834,462.4,362.179,452.4,321.22L335.67,323.912Z" transform="translate(-63.041 87.797)" fill="#93bee5"/>
        <path id="Trazado_568" data-name="Trazado 568" d="M308.534,338.5c10.258,73.551,100.105,30.992,108.8,73.551,4.329,21.28,20.807,42.56,52.308,60.42-15.35-52.6-31.247-110.254-41.25-151.213l-116.729,2.692a19.86,19.86,0,0,0-3.128,14.55Z" transform="translate(-39.033 87.902)" fill="#83addf"/>
        <path id="Trazado_569" data-name="Trazado 569" d="M303.89,336.28c9.494,4.365,3.638,9.712.946,17.642s11.386,6,10.913,16.733-5.674,4.729,0,20.88c5.493,15.605,67.768,172.384,89.12,206.65" transform="translate(41.564 127.518)" fill="none" stroke="#c3dcf8" stroke-linecap="round" stroke-linejoin="round" stroke-width="0.75"/>
        <path id="Trazado_570" data-name="Trazado 570" d="M412.209,416.2s127.315,26.19,213.816,34.266c52.854,4.983,88.356-12.368,105.671-38.449a75.988,75.988,0,0,0,10.913-57.146c-43-50.926-93.158-65.985-134.881-67.622a209.891,209.891,0,0,0-86.5,15.1c-104.834-8.912-163.4-4.474-194.936,9.13h0C272.091,376.224,336.73,400.05,412.209,416.2Z" transform="translate(-306.216 -2.201)" fill="#93bee5"/>
        <path id="Trazado_571" data-name="Trazado 571" d="M643.753,295.05c1.964,36.376-12.877,49-91.157,47.87-86.137-1.237-206.286-9.094-212.724-7.966-13.132,2.292,12.4,23.1,3.383,23.426-11.895.473-24.735,2.219-18.188,10.367s13.6,11.458,8.767,16.514" transform="translate(-268.072 18.772)" fill="none" stroke="#c3dcf8" stroke-linecap="round" stroke-linejoin="round" stroke-width="0.75"/>
        <path id="Trazado_572" data-name="Trazado 572" d="M507.723,330.349c-19.17,10.622-45.106,16.005-77.589,12.986-34.666-3.238-75.843-9.385-112.764-15.605" transform="translate(-110.325 104.967)" fill="none" stroke="#83addf" stroke-linecap="round" stroke-linejoin="round" stroke-width="0.75"/>
        <path id="Trazado_573" data-name="Trazado 573" d="M239.667,447.936c2.51,10.04,9.494,19.461,23.317,27.064h0c1.637.509,3.31.982,4.983,1.419s3.092.691,4.656.982l2.91.4,2,.218h.982c1.673,0,3.347.182,5.02.182,27.027,0,56.2-17.278,78.062-64.276,0,0,13.75,26.118,17.533,42.887a33.651,33.651,0,0,1,.982,6.8,134.593,134.593,0,0,1-2.692,29.1s53.872.582,89.775,11.131,76.171,30.083,131.607,41.4c0,0-2.728-25.463-12.113-38.631A16.77,16.77,0,0,0,597.6,489c-1.237-10.4-11.568-15.059-24.663-35.248a167.519,167.519,0,0,1-11.276-20.589C541,388.68,545.695,377.33,548.386,373.038l24.772,26.627c44.487,47.761,133.9,143.611,140.009,149.467,8.221,7.821,21.025,10.913,25.681,7.784,2.837-1.891,21.825,13.241,36.376,25.463,9.494,8,17.133,14.768,17.133,14.768L846.63,564.41s-15.278-12.659-31.065-26.081c-16.7-14.15-33.975-29.1-34.52-30.919-1.164-3.638,2.364-12.622-5.42-20.771-6.948-7.275-139.245-155.906-185.006-208.577-5.929-6.839-10.44-12.04-12.986-15.132-22.3-26.882-35.721-40.013-67.8-47.979l-156.67,3.383S308.09,210.076,298.6,238.3c-1.346,4.147-2.765,9.821-4.22,16.551-8.439,39.5-17.206,114.656-17.206,114.656S230.937,412.506,239.667,447.936Z" transform="translate(-162.593 -192.497)" fill="#fed81d"/>
        <path id="Trazado_574" data-name="Trazado 574" d="M238.51,347.941c9.494,8,17.133,14.768,17.133,14.768l54.272-32.738s-15.278-12.659-31.065-26.081A138.229,138.229,0,0,0,238.51,347.941Z" transform="translate(374.34 42.088)" fill="#b25e47"/>
        <path id="Trazado_575" data-name="Trazado 575" d="M313.78,246.54c0,18.588,9.6,45.251,20.807,55.218,13.677,12.077-6.911,55.909,15.969,68.532a25.863,25.863,0,0,0,27.536,0A167.486,167.486,0,0,1,366.816,349.7c-20.661-44.487-15.969-55.837-13.277-60.129C337.933,273.458,323.347,257.271,313.78,246.54Z" transform="translate(32.365 -109.176)" fill="#fcc71f"/>
        <path id="Trazado_576" data-name="Trazado 576" d="M371.91,379.1c2.51,10.04,9.494,19.461,23.317,27.064h0c1.637.509,3.31.982,4.984,1.419s3.092.691,4.656.982l2.91.4,2,.218h.982c1.673,0,3.347.182,5.02.182,27.027,0,56.2-17.278,78.062-64.276-24.19-52.745-25.281-79.008-19.643-104.034a33.356,33.356,0,0,0-24.517,23.717c-9.494,31.9,36.921,70.46,12.331,94.067-21.825,20.77-60.2-11.568-74.024,12.477A14.55,14.55,0,0,1,371.91,379.1Z" transform="translate(-294.835 -123.656)" fill="#fcc71f"/>
        <path id="Trazado_577" data-name="Trazado 577" d="M308.89,254.93c14.95-1.2,33.975,1.964,44.524,21.825,19.17,36.376,82.863,83.664,127.5,27.682,34.884-43.651,66.422-46.852,124.114-26.445-5.929-6.839-10.44-12.04-12.986-15.132-22.3-26.882-35.721-40.013-67.8-47.979l-156.67,3.383s-45.069-8.257-54.563,19.97C311.764,242.525,310.345,248.055,308.89,254.93Z" transform="translate(-176.779 -192.681)" fill="#ffe05c"/>
        <line id="Línea_45" data-name="Línea 45" x1="32.956" y1="27.536" transform="translate(608.194 327.608)" fill="none" stroke="#f7ad2b" stroke-linecap="round" stroke-linejoin="round" stroke-width="0.75"/>
        <line id="Línea_46" data-name="Línea 46" x1="31.829" y1="27.136" transform="translate(597.245 340.158)" fill="none" stroke="#f7ad2b" stroke-linecap="round" stroke-linejoin="round" stroke-width="0.75"/>
        <line id="Línea_47" data-name="Línea 47" x1="28.446" y1="21.389" transform="translate(591.098 357.909)" fill="none" stroke="#f7ad2b" stroke-linecap="round" stroke-linejoin="round" stroke-width="0.75"/>
        <line id="Línea_48" data-name="Línea 48" x1="8.33" y1="32.665" transform="translate(410.457 316.041)" fill="none" stroke="#f7ad2b" stroke-linecap="round" stroke-linejoin="round" stroke-width="0.75"/>
        <line id="Línea_49" data-name="Línea 49" x1="7.602" y1="33.647" transform="translate(396.125 311.094)" fill="none" stroke="#f7ad2b" stroke-linecap="round" stroke-linejoin="round" stroke-width="0.75"/>
        <line id="Línea_50" data-name="Línea 50" x1="6.438" y1="29.355" transform="translate(382.92 311.094)" fill="none" stroke="#f7ad2b" stroke-linecap="round" stroke-linejoin="round" stroke-width="0.75"/>
        <line id="Línea_51" data-name="Línea 51" x1="5.274" y1="25.972" transform="translate(366.988 308.875)" fill="none" stroke="#f7ad2b" stroke-linecap="round" stroke-linejoin="round" stroke-width="0.75"/>
        <line id="Línea_52" data-name="Línea 52" x1="3.419" y1="23.389" transform="translate(352.11 305.565)" fill="none" stroke="#f7ad2b" stroke-linecap="round" stroke-linejoin="round" stroke-width="0.75"/>
        <line id="Línea_53" data-name="Línea 53" x1="1.382" y1="15.605" transform="translate(338.906 307.784)" fill="none" stroke="#f7ad2b" stroke-linecap="round" stroke-linejoin="round" stroke-width="0.75"/>
        <path id="Trazado_578" data-name="Trazado 578" d="M320.53,243s4.22,4.911,11.094,12.731c9.567,10.913,24.153,26.918,39.759,43.105" transform="translate(14.52 -118.513)" fill="none" stroke="#f7ad2b" stroke-linecap="round" stroke-linejoin="round" stroke-width="0.75"/>
        <path id="Trazado_579" data-name="Trazado 579" d="M394.349,369.1c-24.19-52.745-25.281-79.008-19.643-104.034,2.328-10.658,5.929-21.025,9.421-33.138" transform="translate(-195.271 -147.711)" fill="none" stroke="#f7ad2b" stroke-linecap="round" stroke-linejoin="round" stroke-width="0.75"/>
        <line id="Línea_54" data-name="Línea 54" x1="24.081" y1="16.151" transform="translate(335.05 33.257)" fill="none" stroke="#f7ad2b" stroke-linecap="round" stroke-linejoin="round" stroke-width="0.75"/>
        <line id="Línea_55" data-name="Línea 55" x1="12.986" y1="21.425" transform="translate(319.991 41.951)" fill="none" stroke="#f7ad2b" stroke-linecap="round" stroke-linejoin="round" stroke-width="0.75"/>
        <line id="Línea_56" data-name="Línea 56" x1="6.22" y1="20.734" transform="translate(304.131 48.026)" fill="none" stroke="#f7ad2b" stroke-linecap="round" stroke-linejoin="round" stroke-width="0.75"/>
        <line id="Línea_57" data-name="Línea 57" x1="4.474" y1="19.679" transform="translate(290.781 51.227)" fill="none" stroke="#f7ad2b" stroke-linecap="round" stroke-linejoin="round" stroke-width="0.75"/>
        <line id="Línea_58" data-name="Línea 58" x1="2.692" y1="20.916" transform="translate(277.722 53.191)" fill="none" stroke="#f7ad2b" stroke-linecap="round" stroke-linejoin="round" stroke-width="0.75"/>
        <line id="Línea_59" data-name="Línea 59" y1="19.461" transform="translate(255.46 54.646)" fill="none" stroke="#f7ad2b" stroke-linecap="round" stroke-linejoin="round" stroke-width="0.75"/>
        <line id="Línea_60" data-name="Línea 60" x1="2.874" y2="19.461" transform="translate(233.635 54.646)" fill="none" stroke="#f7ad2b" stroke-linecap="round" stroke-linejoin="round" stroke-width="0.75"/>
        <line id="Línea_61" data-name="Línea 61" x1="4.874" y2="21.862" transform="translate(218.175 52.245)" fill="none" stroke="#f7ad2b" stroke-linecap="round" stroke-linejoin="round" stroke-width="0.75"/>
        <line id="Línea_62" data-name="Línea 62" x1="6.729" y2="17.751" transform="translate(204.171 49.408)" fill="none" stroke="#f7ad2b" stroke-linecap="round" stroke-linejoin="round" stroke-width="0.75"/>
        <line id="Línea_63" data-name="Línea 63" x1="8.803" y2="18.843" transform="translate(192.312 44.533)" fill="none" stroke="#f7ad2b" stroke-linecap="round" stroke-linejoin="round" stroke-width="0.75"/>
        <line id="Línea_64" data-name="Línea 64" x1="11.058" y2="8.657" transform="translate(179.108 44.533)" fill="none" stroke="#f7ad2b" stroke-linecap="round" stroke-linejoin="round" stroke-width="0.75"/>
        <line id="Línea_65" data-name="Línea 65" x1="13.604" y2="6.802" transform="translate(171.033 34.53)" fill="none" stroke="#f7ad2b" stroke-linecap="round" stroke-linejoin="round" stroke-width="0.75"/>
        <path id="Trazado_580" data-name="Trazado 580" d="M361.074,216.317c2.692-1.237,5.638-2.51,8.8-3.638a61.838,61.838,0,0,1,24.008-3.856c28.082.327,93.885,22.48,93.885,22.48-1.419,1.964-18.624,21.061-53.69,28.3s-71.005,3.638-86.392-2.474A27.791,27.791,0,0,1,331.1,234.686S338.411,226.647,361.074,216.317Z" transform="translate(-140.315 -208.777)" fill="#b25e47"/>
      </g>
      <g id="leg-3" data-name="leg" transform="translate(0 441.85)">
        <path id="Trazado_581" data-name="Trazado 581" d="M430.765,404.285c-19.534-14-37.685,6,7.275,17.642" transform="translate(-364.127 -8.81)" fill="none" stroke="#83addf" stroke-linecap="round" stroke-linejoin="round" stroke-width="0.75"/>
        <path id="Trazado_582" data-name="Trazado 582" d="M437.4,430.767c-9.2-22.262-22.735-40.959-29.1-36.157-7.784,5.929,22.044,37.976,22.044,37.976" transform="translate(-352.389 -23.689)" fill="none" stroke="#83addf" stroke-linecap="round" stroke-linejoin="round" stroke-width="0.75"/>
        <path id="Trazado_583" data-name="Trazado 583" d="M405.127,512.631h122.8c.473-16.769-18.442-54.309-20.516-66.531v-.837c-2.292-13.568-8.73-63.694-8.73-63.694l-65.876,4.147,17.715,60.129a195.267,195.267,0,0,1-21.1,25.79c-14.041,14.8-41.65,16.914-44.233,27.318S397.6,512.631,405.127,512.631Z" transform="translate(-362.533 -56.082)" fill="#c3dcf8"/>
        <path id="Trazado_584" data-name="Trazado 584" d="M390.57,385.717l17.715,60.129s35.721-.291,56.891-.582c-2.292-13.568-8.73-63.694-8.73-63.694Z" transform="translate(-320.404 -56.082)" fill="#b25e47"/>
        <path id="Trazado_585" data-name="Trazado 585" d="M391.612,364.186c7.493,56.6,59.219,267.542,59.219,267.542h84.828L510.2,403.508a.838.838,0,0,1,0-.473c.473-2.946,15.823-99.2-67.077-110.945h0a121.416,121.416,0,0,0-18.915,6.22h0C391.794,312.205,387.865,335.631,391.612,364.186Z" transform="translate(-390.45 -292.09)" fill="#93bee5"/>
        <path id="Trazado_586" data-name="Trazado 586" d="M445.085,306.976c-16.915-.8-28.009-1.2-29.828-.873-13.132,2.292,12.4,23.1,3.383,23.426-11.895.473-24.735,2.219-18.188,10.367,7.275,8.8,14.077,11.677,8.185,17.1-11.167,10.222,7.894,19.934,9.2,31.683s22.7,188.571,22.7,188.571" transform="translate(-329.813 -255.432)" fill="none" stroke="#c3dcf8" stroke-linecap="round" stroke-linejoin="round" stroke-width="0.75"/>
      </g>
      <g id="hand-2" data-name="hand" transform="translate(9.851 127.875)">
        <path id="Trazado_587" data-name="Trazado 587" d="M398.9,266.031c5.383,14.55,11.167,27.391,11.167,27.391l.582,2.292,10.913,44.342s-8.585,2.292-8.366,9.821,16.078,69.368,31.392,104.252c.655,1.564,1.455,3.092,2.255,4.656s1.2,2.255,1.855,3.347q2.037,3.419,4.365,6.657c.728,1.018,1.455,2,2.219,2.946s1.673,2.073,2.583,3.055,1.71,1.928,2.583,2.874a78.314,78.314,0,0,0,5.856,5.529l3.092,2.546a81.73,81.73,0,0,0,16.769,10.294h.255l3.638,1.528c1.237.473,2.474.946,3.638,1.346h0c25.135-6.439,33.393-22.917,33.975-40.959.982-30.046-19.5-64.457-19.5-64.457a.364.364,0,0,0,0-.182c-1.2-3.419-20.952-58.492-24.99-63.039s-12.04-1.564-12.04-1.564l-14.15-45-3.092-9.858s1.128-2.365,2.655-5.82a97.4,97.4,0,0,0,7.275-22.226c.837-8.766-7.275-14.259-13.823-15.278,0,0-.619-15.06-5.638-21.171a7.712,7.712,0,0,0-13.823,1.673c-1.564-5.238-13.022-5.966-13.313,4.365a7.275,7.275,0,0,0-14.3,2.546s-8.4-8.148-12.768,7.275C388.171,233.293,393.3,250.753,398.9,266.031Z" transform="translate(-389.731 -205.775)" fill="#fed81d"/>
        <path id="Trazado_588" data-name="Trazado 588" d="M408.87,229.15s11.6,38.485,11.6,37.794" transform="translate(-352.119 -144.123)" fill="none" stroke="#f7ad2b" stroke-linecap="round" stroke-linejoin="round" stroke-width="0.75"/>
        <line id="Línea_66" data-name="Línea 66" x2="8.039" y2="33.393" transform="translate(47.693 88.665)" fill="none" stroke="#f7ad2b" stroke-linecap="round" stroke-linejoin="round" stroke-width="0.75"/>
        <line id="Línea_67" data-name="Línea 67" x2="7.166" y2="34.52" transform="translate(34.162 90.665)" fill="none" stroke="#f7ad2b" stroke-linecap="round" stroke-linejoin="round" stroke-width="0.75"/>
        <path id="Trazado_589" data-name="Trazado 589" d="M391.872,257.41c7.275,20.989,12.149,36.594,11.276,41.9" transform="translate(-273.065 -69.585)" fill="none" stroke="#f7ad2b" stroke-linecap="round" stroke-linejoin="round" stroke-width="0.75"/>
        <path id="Trazado_590" data-name="Trazado 590" d="M389.78,278.2c.582,1.128,1.2,2.255,1.855,3.347q2.037,3.419,4.365,6.657c.728,1.019,1.455,2,2.219,2.946s1.673,2.073,2.583,3.056,1.71,1.928,2.583,2.874a78.221,78.221,0,0,0,5.856,5.529l3.092,2.546A79.582,79.582,0,0,0,429.1,315.452h.254l3.638,1.528c1.237.473,2.474.946,3.638,1.346h0c25.136-6.439,33.393-22.917,33.975-40.959-16.624-2.619-33.1-7.784-41.177,6.257C420.517,299.92,401.457,287.916,389.78,278.2Z" transform="translate(-332.811 -25.194)" fill="#fcc71f"/>
        <path id="Trazado_591" data-name="Trazado 591" d="M427.377,293.342l.582,2.292a66.638,66.638,0,0,0,22.3-.255,54.2,54.2,0,0,0,24.226-11.64l-3.092-9.858s9.167-19.279,10-28.046-7.275-14.259-13.823-15.278c0,0-.618-15.059-5.638-21.171a7.712,7.712,0,0,0-13.823,1.673c-1.564-5.238-13.022-6-13.313,4.365a7.275,7.275,0,0,0-14.3,2.546s-8.4-8.148-12.768,7.275S427.377,293.342,427.377,293.342Z" transform="translate(-407.038 -205.696)" fill="#b25e47"/>
        <path id="Trazado_592" data-name="Trazado 592" d="M474.862,264.794a83.268,83.268,0,0,0,6-18.988c.837-8.8-7.275-14.259-13.823-15.278,0,0-.618-15.06-5.638-21.171a7.712,7.712,0,0,0-13.823,1.673c-1.564-5.238-13.023-6-13.314,4.365a7.275,7.275,0,0,0-14.3,2.546s-8.4-8.148-12.768,7.275" transform="translate(-406.507 -205.775)" fill="none" stroke="#934735" stroke-linecap="round" stroke-linejoin="round" stroke-width="0.75"/>
        <path id="Trazado_593" data-name="Trazado 593" d="M432.577,213.358c-11.458-2.073-21.243-.982-21.571,2.91s13.314,9.421,13.314,9.421-17.424,2.328-11.531,23.135" transform="translate(-371.97 -188.496)" fill="none" stroke="#934735" stroke-linecap="round" stroke-linejoin="round" stroke-width="0.75"/>
        <path id="Trazado_594" data-name="Trazado 594" d="M415.3,207.05s2.473,16.333,3.638,19.534" transform="translate(-373.972 -202.413)" fill="none" stroke="#934735" stroke-linecap="round" stroke-linejoin="round" stroke-width="0.75"/>
        <path id="Trazado_595" data-name="Trazado 595" d="M428.023,227.567c-4.4,1.2-8.621-3.274-10.913-19.5" transform="translate(-389.641 -199.723)" fill="none" stroke="#934735" stroke-linecap="round" stroke-linejoin="round" stroke-width="0.75"/>
        <path id="Trazado_596" data-name="Trazado 596" d="M427.294,212.86a8.294,8.294,0,0,1-8.694,6.657" transform="translate(-394.333 -187.089)" fill="none" stroke="#934735" stroke-linecap="round" stroke-linejoin="round" stroke-width="0.75"/>
        <path id="Trazado_597" data-name="Trazado 597" d="M423.858,209.15c3.638,2.8,13.1,19.861,8.075,24.081-5.856,4.874-10.549-7.275-10.549-7.275" transform="translate(-410.54 -196.874)" fill="none" stroke="#934735" stroke-linecap="round" stroke-linejoin="round" stroke-width="0.75"/>
      </g>
      <g id="leg-4" data-name="leg" transform="translate(395.132 805.368)">
        <path id="Trazado_598" data-name="Trazado 598" d="M281.709,498.024c-16.878-10.731-32.738-12.768-36.376-10.149-5.129,4,10.44,14.769,23.135,16.478" transform="translate(-0.112 -141.924)" fill="none" stroke="#83addf" stroke-linecap="round" stroke-linejoin="round" stroke-width="0.75"/>
        <path id="Trazado_599" data-name="Trazado 599" d="M288.473,495.639c-25.245-9.494-50.926,0-48.052,8.548,3.237,9.858,43.1-4.365,43.1-4.365" transform="translate(8.147 -129.172)" fill="none" stroke="#83addf" stroke-linecap="round" stroke-linejoin="round" stroke-width="0.75"/>
        <path id="Trazado_600" data-name="Trazado 600" d="M294.055,621.4c-7.457,7.457-21.825,23.535-19.825,28.191s9.6,6.075,9.6,6.075h53.836s8.657-5.166,8.985-10.113,17.315-104.325,14.55-112.982c-2.364-7.275-36.157-20.7-52.126-29.61a45.114,45.114,0,0,1-6.366-4.147c-9.894-8.33-40.231-39.322-40.231-39.322l-37.794,46.451c21.825,12.186,46.27,28.773,57.582,43.651a29.536,29.536,0,0,1,6.184,12.55C291.254,578.838,301.475,613.832,294.055,621.4Z" transform="translate(-8.456 -214.081)" fill="#c3dcf8"/>
        <path id="Trazado_601" data-name="Trazado 601" d="M239.1,505.9c21.825,12.186,46.27,28.773,57.583,43.651l26.809-46.633a45.189,45.189,0,0,1-6.366-4.147c-9.894-8.33-40.231-39.322-40.231-39.322Z" transform="translate(-22.87 -214.186)" fill="#b25e47"/>
        <path id="Trazado_602" data-name="Trazado 602" d="M252.59,466.432h0a356.222,356.222,0,0,0,19.825,33.975C308.027,550.5,465.569,699.345,465.569,699.345l53-68.277L337.527,414.888C306.5,374.948,225.454,384.442,252.59,466.432Z" transform="translate(-247.12 -392.025)" fill="#93bee5"/>
        <path id="Trazado_603" data-name="Trazado 603" d="M253.03,412.35C293.261,460.584,426.8,605.141,426.8,605.141" transform="translate(-176.846 -338.415)" fill="none" stroke="#c3dcf8" stroke-linecap="round" stroke-linejoin="round" stroke-width="0.75"/>
        <path id="Trazado_604" data-name="Trazado 604" d="M303.93,392.15a585,585,0,0,0,28.446,58.674" transform="translate(-267.577 -391.694)" fill="none" stroke="#c3dcf8" stroke-linecap="round" stroke-linejoin="round" stroke-width="0.75"/>
      </g>
      <g id="head-2" data-name="head" transform="translate(162.672)">
        <path id="Trazado_605" data-name="Trazado 605" d="M351.864,305.462c12.586-3.638,12.841,6.184,6.911,10.185s-2.91,16.478,11.859,18.188c1.346.182,4.838.691,9.057,1.128,7.894.8,18.188,1.455,21.243-.255s3.238-6.475,2.146-11.495c-.182-1.018-.509-2.037-.8-3.128h0a91.264,91.264,0,0,0-6.511-15.351,39.613,39.613,0,0,1-19.825-5.82c-13.5-8.985-13.859-26.991-8.4-45.761a120.467,120.467,0,0,1,4.947-13.786c1.491-3.638,3.165-7.275,4.947-10.658h0c16.442-32.047,39.758-32.011,39.758-32.011-10.331,17.679-.509,29.682,5.529,32.738s12.622,5.129,12.295,17.278,5.129,13.968,8.767,13.35c11.458-2.11,19.607,6.584,14.55,16.114s-19.243,6.548-23.462,2.037c0,0-8.4,5.638-8.876,12.368s12.513,14.8,6.366,25.281a11.859,11.859,0,0,0,10.694,18.188,29.427,29.427,0,0,1,15.605,2.4,21.1,21.1,0,0,1,3.347,2.037,19.894,19.894,0,0,1,2.11,1.819c5.529,5.6,9.639,12.477,22.807,9.458s15.5-21.352,15.5-21.352c18.661.837,31.137,3.092,32.338-12.113.982-12.077-12.549-16.405-19.716-17.715a7.275,7.275,0,0,1-3.638-12.841c6.948-5.311,1.746-13.532-8.4-17.024s-6.366-26.045-7.275-37.03c-1.419-19.643-19.607-36.739-44.015-37.9,0,0-12.622-27.318-43.178-22.626s-44.414,34.229-43,47.834,1.6,28.082-13.132,28.773-23.026,9.749-17.715,18.806,9.094,15.86-2.073,23.317S339.278,308.99,351.864,305.462Z" transform="translate(-329.096 -170.621)" fill="#604730"/>
        <path id="Trazado_606" data-name="Trazado 606" d="M381.456,187.48c-10.331,17.678-.509,29.682,5.529,32.738s12.622,5.129,12.295,17.278,5.129,13.968,8.767,13.35c11.458-2.11,19.606,6.584,14.55,16.114s-19.243,6.548-23.462,2.037c0,0-8.4,5.638-8.876,12.368s12.513,14.8,6.366,25.281a11.858,11.858,0,0,0,10.694,18.188,29.428,29.428,0,0,1,15.605,2.4,21.1,21.1,0,0,1,3.347,2.037c18.988-8.366,33.429-21.534,25.754-31.792-10.04-13.386-16.987-6.038-11.24-27.391s.182-35.03-13.823-36.376S399.716,222.8,406.7,208.723s-15.278-44.305-43.651-31.647c-14.914,6.657-20.37,24.153-21.607,42.268C358.139,187.443,381.456,187.48,381.456,187.48Z" transform="translate(-293.321 -161.584)" fill="#473526"/>
        <path id="Trazado_607" data-name="Trazado 607" d="M365.31,205.86c1.419,10.694,8.039,21.134,27.136,24.335-.182-1.019-.509-2.037-.8-3.128h0a91.276,91.276,0,0,0-6.511-15.351,39.613,39.613,0,0,1-19.825-5.856Z" transform="translate(-318.461 -77.676)" fill="#473526"/>
        <path id="Trazado_608" data-name="Trazado 608" d="M387.542,301.129c1.855,6.148,2.4,12.3-1.346,14.55-2.91,1.71-13.35,1.055-21.243.255,29.428,24.226,53.909,20.516,79.117,1.6a29.428,29.428,0,0,0-15.605-2.4,11.858,11.858,0,0,1-10.694-18.188c6.148-10.476-6.839-18.515-6.366-25.281S420.28,259.3,420.28,259.3c4.22,4.511,18.515,7.493,23.462-2.037s-3.2-18.188-14.55-16.114c-3.638.618-9.13-1.2-8.766-13.35s-6.257-14-12.3-17.278-15.86-15.2-5.529-32.738c0,0-23.353,0-39.795,32.083-1.782,3.456-3.456,7.02-4.947,10.658a120.454,120.454,0,0,0-4.947,13.786c-7.275,25.463-4.074,49.507,28.227,51.581a91.24,91.24,0,0,1,6.511,15.35Z" transform="translate(-314.357 -151.739)" fill="#b25e47"/>
        <path id="Trazado_609" data-name="Trazado 609" d="M372.536,203.3a7.6,7.6,0,0,0,8.075-1.855c2.4-3.092,1.018-8.33-3.128-11.967A123.612,123.612,0,0,0,372.536,203.3Z" transform="translate(-334.09 -120.879)" fill="#a0503d"/>
        <path id="Trazado_610" data-name="Trazado 610" d="M372.355,193.154a3.638,3.638,0,1,1-3.58-3.633A3.638,3.638,0,0,1,372.355,193.154Z" transform="translate(-297.533 -120.771)" fill="#683f1d"/>
        <path id="Trazado_611" data-name="Trazado 611" d="M376.828,191.12a3.638,3.638,0,1,1-1-2.691A3.638,3.638,0,0,1,376.828,191.12Z" transform="translate(-318.267 -126.629)" fill="#683f1d"/>
        <path id="Trazado_612" data-name="Trazado 612" d="M362.2,210.177a91.261,91.261,0,0,1,6.511,15.35,17.86,17.86,0,0,0,11.967-19.1,63.118,63.118,0,0,1-18.479,3.747Z" transform="translate(-295.529 -76.173)" fill="#914839"/>
        <path id="Trazado_613" data-name="Trazado 613" d="M366.49,201.86c-2.51-6.475-10.913-5.274-14.55-1.491" transform="translate(-243.871 -100.34)" fill="none" stroke="#934735" stroke-linecap="round" stroke-linejoin="round" stroke-width="0.75"/>
        <path id="Trazado_614" data-name="Trazado 614" d="M358.8,204.468a5.42,5.42,0,0,0-5.238-6.948" transform="translate(-242.289 -99.673)" fill="none" stroke="#934735" stroke-linecap="round" stroke-linejoin="round" stroke-width="0.75"/>
        <path id="Trazado_615" data-name="Trazado 615" d="M359.2,204.041a13.787,13.787,0,0,1-2.655-5.311" transform="translate(-253.309 -96.482)" fill="none" stroke="#934735" stroke-linecap="round" stroke-linejoin="round" stroke-width="0.75"/>
        <path id="Trazado_616" data-name="Trazado 616" d="M385.5,195.58A17.678,17.678,0,0,1,366,197.8" transform="translate(-314.022 -104.79)" fill="none" stroke="#934735" stroke-linecap="round" stroke-linejoin="round" stroke-width="0.75"/>
        <path id="Trazado_617" data-name="Trazado 617" d="M368.728,210.321c-1.673-5.384-.582-9.239,5.638-10.258a12.986,12.986,0,0,0,10.076-13.423" transform="translate(-320.352 -128.37)" fill="none" stroke="#934735" stroke-linecap="round" stroke-linejoin="round" stroke-width="0.75"/>
        <path id="Trazado_618" data-name="Trazado 618" d="M378.912,191.143c0,4.329-16.151,2.328-17.5-2.473C360.324,184.886,379.022,182.995,378.912,191.143Z" transform="translate(-290.595 -131.563)" fill="#604730"/>
        <path id="Trazado_619" data-name="Trazado 619" d="M371.882,181.671c3.929-1.855,9.312,13.75,4.438,14.95C373.919,197.24,362.679,186.072,371.882,181.671Z" transform="translate(-315.212 -141.88)" fill="#604730"/>
        <path id="Trazado_620" data-name="Trazado 620" d="M369.413,177a47.761,47.761,0,0,0-17.533,4.729" transform="translate(-246.576 -153.796)" fill="none" stroke="#896442" stroke-linecap="round" stroke-linejoin="round" stroke-width="0.75"/>
        <path id="Trazado_621" data-name="Trazado 621" d="M341.158,184.73c12.077,4.474,26.59,12.04,27.027,26.554s-5.784,27.682,13.423,37.139,1.018,33.684,1.018,33.684" transform="translate(-228.579 -133.408)" fill="none" stroke="#896442" stroke-linecap="round" stroke-linejoin="round" stroke-width="0.75"/>
        <path id="Trazado_622" data-name="Trazado 622" d="M360.893,234.772c-11.713-9.567,1.018-21.607-11.713-30.592" transform="translate(-228.234 -82.107)" fill="none" stroke="#896442" stroke-linecap="round" stroke-linejoin="round" stroke-width="0.75"/>
        <path id="Trazado_623" data-name="Trazado 623" d="M345.18,183.891c19.643-7.748,42.341,2,47.288,10.294" transform="translate(-245.259 -143.081)" fill="none" stroke="#896442" stroke-linecap="round" stroke-linejoin="round" stroke-width="0.75"/>
        <path id="Trazado_624" data-name="Trazado 624" d="M359.393,201.085c.8,4.074,6.184,6.4,11.931,5.2s9.785-5.42,8.985-9.458-6.184-6.4-11.967-5.2S358.556,197.12,359.393,201.085Z" transform="translate(-284.498 -116.042)" fill="#a0503d"/>
      </g>
    </g>
    <g id="Man_L" data-name="Man L" transform="translate(1569.498 711.752)">
      <g id="leg-5" data-name="leg" transform="translate(494.764 501.98)">
        <path id="Trazado_625" data-name="Trazado 625" d="M207.184,506.13c26.3,28.228,32.738,50.707,36.958,65.476l-59.074,46.342H98.93s1.528-20.807,18.188-24.226,26.663-4.947,26.663-4.947l16.442-35.5Z" transform="translate(47.971 -45.215)" fill="#fed81d"/>
        <path id="Trazado_626" data-name="Trazado 626" d="M107.893,450.171C105.528,613.5,95.2,647.362,128.627,703.89s184.1,183.588,184.1,183.588l63.548-47.616S299.883,755.107,264.2,709.929s-40.959-63.548-40.013-91.339S251.5,379.42,251.5,379.42Z" transform="translate(-104.53 -379.42)" fill="#683f1d"/>
      </g>
      <g id="leg-6" data-name="leg" transform="translate(0 454.583)">
        <path id="Trazado_627" data-name="Trazado 627" d="M357.1,460.76s-56.491,34.375-67.7,40.231S276.641,521.8,276.641,521.8H413.049s6.475-34.157,3.019-54.563Z" transform="translate(-276.641 -117.484)" fill="#fed81d"/>
        <path id="Trazado_628" data-name="Trazado 628" d="M243.454,709.666l68.932,13.641,87.956-236.15c20.479-54.782,42.523-103.561-2.619-120.767h0c-50.6,1.746-74.716,17.86-95.377,75.734C280.666,503.2,243.454,709.666,243.454,709.666Z" transform="translate(-162.991 -366.39)" fill="#683f1d"/>
      </g>
      <g id="waist-2" data-name="waist" transform="translate(184.089 438.396)">
        <path id="Trazado_629" data-name="Trazado 629" d="M189.262,498.894s201.848,18.37,264.087,20.7,122.877-4.656,150.595-102.4L445.164,361.94,424.83,377.945c-90.757,1.455-173.148-.291-229.675,0-2.946,0-5.784,0-8.548.182h0C104.107,391.877,135.317,482.379,189.262,498.894Z" transform="translate(-136 -361.94)" fill="#683f1d"/>
        <path id="Trazado_630" data-name="Trazado 630" d="M141.88,443.2c45.542.8,89.193-5.929,118.73-52.2" transform="translate(185.945 -285.293)" fill="none" stroke="#91613d" stroke-linecap="round" stroke-linejoin="round" stroke-width="0.75"/>
      </g>
      <g id="torso-2" data-name="torso" transform="translate(204.292 139.815)">
        <path id="Trazado_631" data-name="Trazado 631" d="M159.766,473.713l45.87,39.249,38.558,82.027s57.946-2.037,92.394,22.771,84.428,35.5,103.743,35.175a573.084,573.084,0,0,0-8.257-118.948c-11.385-62.711-39.322-158.306-39.322-158.306.327-2.983.473-5.966.582-8.876,1.564-49.907-24.772-89.411-67.768-86.828-45.506,2.8-92.03,19.643-92.03,19.643s-50.344,7.966-76.862,22.771c-12.04,6.73-20.261,18.188-22.116,37.94C132.3,384.047,139.323,419.768,159.766,473.713Z" transform="translate(13.774 -279.857)" fill="#a7caf0"/>
        <path id="Trazado_632" data-name="Trazado 632" d="M245.577,413.728l15.278-21.1c-11.495-4.983-21.061-9.494-24.845-11.313,5.02-23.135,9.676-43.469,14.223-60.747-8.257,1.528-19.861,9.167-23.062,38.231-2.4,22.153-34.739-13.2-46.6,15.642S245.577,413.728,245.577,413.728Z" transform="translate(29.27 -172.474)" fill="#93bee5"/>
        <path id="Trazado_633" data-name="Trazado 633" d="M202.42,309.75c6.293,6.584,15.278,42.3,28.227,84.646" transform="translate(-24.514 -201.013)" fill="none" stroke="#83addf" stroke-linecap="round" stroke-linejoin="round" stroke-width="0.75"/>
        <path id="Trazado_634" data-name="Trazado 634" d="M160.419,355.068c.546,12.731,23.135,9.53,23.135,9.53-5.747,10.112,10.913,16.7,19.134,17.169a43.034,43.034,0,0,0,16.187-2.692s80.863,71.914,111.091,98.978S416.212,547.168,454.079,542s48.38-43.651,65.221-87.3a135.368,135.368,0,0,1-26.481-4.8c-22.371-6.22-58.965-23.462-67.259-27.427-1.055,4.947-2.183,10.076-3.274,15.314-67.8-38.267-143.247-87.3-149.576-93.376s-33.138-27.027-41.068-35.612-22.917-.618-16.878,4.147,8.948,9.494-15.351,24.481C168.822,356.269,159.8,339.79,160.419,355.068Z" transform="translate(-160.281 -213.557)" fill="#febd9d"/>
        <path id="Trazado_635" data-name="Trazado 635" d="M147.162,360.351c12.586-7.93,28.009-11.2,43.651,1.455,37.1,29.9,72.751,28.482,122.986-29.391,48.852-56.237,89.775,29.464,92.1,34.411,1.564-49.907-24.772-89.411-67.768-86.828-45.506,2.8-92.03,19.643-92.03,19.643s-50.344,7.966-76.862,22.771C157.238,329.068,149.017,340.526,147.162,360.351Z" transform="translate(1.171 -279.804)" fill="#c3dcf8"/>
        <path id="Trazado_636" data-name="Trazado 636" d="M203.451,307.105a7.675,7.675,0,1,1-7.675-7.675,7.675,7.675,0,0,1,7.675,7.675Z" transform="translate(54.773 -228.232)" fill="#fff"/>
        <path id="Trazado_637" data-name="Trazado 637" d="M289,315.944s-27.282,124.441-36.376,145.5a50.924,50.924,0,0,1-11.749.255,135.407,135.407,0,0,1-26.481-4.8,359.882,359.882,0,0,1-42.414-16.114c-11.495-4.984-21.061-9.494-24.844-11.313,5.02-23.135,9.676-43.469,14.223-60.747,10.4-39.54,20.3-62.857,33.138-66.495" transform="translate(118.213 -220.847)" fill="none" stroke="#83addf" stroke-linecap="round" stroke-linejoin="round" stroke-width="0.75"/>
        <path id="Trazado_638" data-name="Trazado 638" d="M180.78,341.48c19.715,12.55,22.844,22.807,22.844,22.807" transform="translate(81.226 -117.323)" fill="none" stroke="#ef8a66" stroke-linecap="round" stroke-linejoin="round" stroke-width="0.75"/>
        <path id="Trazado_639" data-name="Trazado 639" d="M246.82,323.068c14.55-1.273,21.316-2.328,21.316-2.328" transform="translate(-223.51 -172.026)" fill="none" stroke="#ef8a66" stroke-linecap="round" stroke-linejoin="round" stroke-width="0.75"/>
        <path id="Trazado_640" data-name="Trazado 640" d="M292.021,379.091A42.955,42.955,0,0,1,275.8,381.82c-8.294-.473-24.881-7.021-19.1-17.169,0,0-22.626,3.164-23.171-9.53-.618-15.278,8.439,1.2,38.995-17.715,24.3-14.987,21.389-19.643,15.351-24.444s8.912-12.768,16.878-4.183c4.074,4.4,13.059,12.077,21.825,19.279" transform="translate(-233.5 -213.608)" fill="none" stroke="#ef8a66" stroke-linecap="round" stroke-linejoin="round" stroke-width="0.75"/>
        <path id="Trazado_641" data-name="Trazado 641" d="M250.73,312.938c-8.8-12.3-20.88-3.638-21.134,6.657s20.334,23.644,26.19,18.188S255.677,319.813,250.73,312.938Z" transform="translate(-150.922 -208.53)" fill="#b25e47"/>
        <path id="Trazado_642" data-name="Trazado 642" d="M251.357,329.524c9.349-4.656,15.969,2.4,8.184,10.913s-22.044,4.656-24.735-3.819Z" transform="translate(-174.648 -152.765)" fill="#b25e47"/>
        <path id="Trazado_643" data-name="Trazado 643" d="M251.357,329.524c9.349-4.656,15.969,2.4,8.184,10.913s-22.044,4.656-24.735-3.819Z" transform="translate(-174.648 -152.765)" fill="none" stroke="#934735" stroke-linecap="round" stroke-linejoin="round" stroke-width="0.75"/>
        <path id="Trazado_644" data-name="Trazado 644" d="M257.133,326.358c9.785-1.819,17.969,1.419,14.878,9.2s-25.463,16.551-34.993,0Z" transform="translate(-192.392 -158.51)" fill="#b25e47"/>
        <path id="Trazado_645" data-name="Trazado 645" d="M257.133,326.358c9.785-1.819,17.969,1.419,14.878,9.2s-25.463,16.551-34.993,0Z" transform="translate(-192.392 -158.51)" fill="none" stroke="#934735" stroke-linecap="round" stroke-linejoin="round" stroke-width="0.75"/>
        <path id="Trazado_646" data-name="Trazado 646" d="M250.73,312.938c-8.8-12.3-20.88-3.638-21.134,6.657s20.334,23.644,26.19,18.188S255.677,319.813,250.73,312.938Z" transform="translate(-150.922 -208.53)" fill="none" stroke="#934735" stroke-linecap="round" stroke-linejoin="round" stroke-width="0.75"/>
        <path id="Trazado_647" data-name="Trazado 647" d="M274.788,337.216c6.548-6.547,2.692-16.005-6.184-13.75s-10.694,7.53-25.972,8.439C232.483,332.342,257.219,354.822,274.788,337.216Z" transform="translate(-209.61 -165.732)" fill="#b25e47"/>
        <path id="Trazado_648" data-name="Trazado 648" d="M274.788,337.216c6.548-6.547,2.692-16.005-6.184-13.75s-10.694,7.53-25.972,8.439C232.483,332.342,257.219,354.822,274.788,337.216Z" transform="translate(-209.61 -165.732)" fill="none" stroke="#934735" stroke-linecap="round" stroke-linejoin="round" stroke-width="0.75"/>
      </g>
      <g id="head-3" data-name="head" transform="translate(367.611)">
        <path id="Trazado_649" data-name="Trazado 649" d="M207.885,326.064l12.586,4.765,19.279,7.093A119.24,119.24,0,0,0,256.3,317.08c7.53-12.259,11.313-25.281-1.091-29.1,14.368,0,16.042-12.149,4.292-14.55,16.26-.4,10.112-16.442-6.693-14.55,0,0,10.4-14.077-17.06-16.987-19.388-2.037-34.484,2.8-43.651,9.458l-.728.582a24.444,24.444,0,0,0-8.475,10.367C178.893,272.847,207.885,326.064,207.885,326.064Z" transform="translate(-153.794 -241.421)" fill="#d39933"/>
        <path id="Trazado_650" data-name="Trazado 650" d="M211.409,318.5l12.586,4.765,19.279,7.093a119.246,119.246,0,0,0,16.551-20.843c-6.948-7.457-18.188-6.075-19.934-11.277-2.546-7.275,16.806-42.014-15.023-41.213-17.933.436-26.227-6.548-30.01-12.731a24.445,24.445,0,0,0-8.475,10.367C182.418,265.279,211.409,318.5,211.409,318.5Z" transform="translate(-157.318 -233.853)" fill="#c4892a"/>
        <path id="Trazado_651" data-name="Trazado 651" d="M233.379,246.17s-25.9,1.128-33.938,2.437c-10.913,1.782-12.44,6.038-12.44,6.038" transform="translate(-134.473 -228.894)" fill="none" stroke="#edb65f" stroke-linecap="round" stroke-linejoin="round" stroke-width="0.75"/>
        <line id="Línea_68" data-name="Línea 68" y1="1.055" x2="10.149" transform="translate(73.516 38.92)" fill="none" stroke="#edb65f" stroke-linecap="round" stroke-linejoin="round" stroke-width="0.75"/>
        <path id="Trazado_652" data-name="Trazado 652" d="M199.389,250.12c-7.566.618-14.259,1.819-14.259,1.819" transform="translate(-93.681 -218.476)" fill="none" stroke="#edb65f" stroke-linecap="round" stroke-linejoin="round" stroke-width="0.75"/>
        <path id="Trazado_653" data-name="Trazado 653" d="M198.387,254.175a83.385,83.385,0,0,0-12.077.728" transform="translate(-96.971 -207.798)" fill="none" stroke="#edb65f" stroke-linecap="round" stroke-linejoin="round" stroke-width="0.75"/>
        <path id="Trazado_654" data-name="Trazado 654" d="M187.62,261.147c12.222-.436,28.009-.4,29.428-2.837" transform="translate(-120.397 -196.874)" fill="none" stroke="#edb65f" stroke-linecap="round" stroke-linejoin="round" stroke-width="0.75"/>
        <path id="Trazado_655" data-name="Trazado 655" d="M221.358,358.991a219.321,219.321,0,0,1,6.075,21.825q.437,1.928.873,3.929c5.529,16.442,12.295,35.975,34.775,33.174,14.259-1.746,30.7-11.422,38.886-35.139,3.165-9.2-5.711-18.006-6.839-19.679h0c-8.73-12.659-16.878-25.79-19.643-35.612,0,0,6.8-8.548,2.11-17.5a19.172,19.172,0,0,0-2.546-3.638c-7.457-8.294-21.316-4.474-25.936,1.928a17.978,17.978,0,0,1-3.092-2.8,8.475,8.475,0,0,1-.728-12.149q1.273-1.455,2.51-2.728l.327-.327c5.747-6.075,10.622-10.913,8.148-19.243a16.294,16.294,0,0,0-2.182-4.729c-3.819-5.384-10.913-6.075-21.534-4.656-13.35,1.746-20.043-2.073-22.917-14.55h0c-.364.546-3.274,5.238-7.275,12.7-1.164,2.146-2.4,4.511-3.638,7.093-2.983,5.893-6.257,12.877-9.312,20.443q-1.819,4.329-3.383,8.839a85.419,85.419,0,0,0-2.874,9.53C176.616,332.255,180.763,364.484,221.358,358.991Z" transform="translate(-180.654 -226.441)" fill="#febd9d"/>
        <path id="Trazado_656" data-name="Trazado 656" d="M195.949,272.982c1.637,4.729,8.876,6.511,16.26,4a20.053,20.053,0,0,0,4.183-1.964,8.476,8.476,0,0,1-.727-12.15q1.419-1.637,2.837-3.055a16.987,16.987,0,0,0-12.149,0C198.932,262.4,194.312,268.254,195.949,272.982Z" transform="translate(-150.952 -195.869)" fill="#f4af90"/>
        <path id="Trazado_657" data-name="Trazado 657" d="M208.485,260.948a3.638,3.638,0,1,1-3.638-3.638A3.638,3.638,0,0,1,208.485,260.948Z" transform="translate(-161.269 -199.512)" fill="#683f1d"/>
        <circle id="Elipse_35" data-name="Elipse 35" cx="3.71" cy="3.71" r="3.71" transform="translate(16.842 50.56)" fill="#683f1d"/>
        <path id="Trazado_658" data-name="Trazado 658" d="M195.719,287.8a219.336,219.336,0,0,1,6.075,21.825c30.483-6.293,17.788-35.539,17.788-35.539S204.631,285.439,195.719,287.8Z" transform="translate(-155.014 -155.253)" fill="#f4a789"/>
        <path id="Trazado_659" data-name="Trazado 659" d="M212.8,269.21c-5.565,7.821-19.861,7.6-24.7,3.638" transform="translate(-117.895 -168.125)" fill="none" stroke="#ef8a66" stroke-linecap="round" stroke-linejoin="round" stroke-width="0.75"/>
        <path id="Trazado_660" data-name="Trazado 660" d="M208.182,269.184c-5.929-6.984-14.041-3.638-18.552,4.62" transform="translate(-118.843 -178.175)" fill="none" stroke="#ef8a66" stroke-linecap="round" stroke-linejoin="round" stroke-width="0.75"/>
        <path id="Trazado_661" data-name="Trazado 661" d="M194.14,275.113c9.676-.255,6.584-11.749-2.473-7.93" transform="translate(-118.151 -175.519)" fill="none" stroke="#ef8a66" stroke-linecap="round" stroke-linejoin="round" stroke-width="0.75"/>
        <path id="Trazado_662" data-name="Trazado 662" d="M220.508,263.22c-3.819,6.548-8,9.858-17.278,7.894" transform="translate(-180.64 -183.923)" fill="none" stroke="#ef8a66" stroke-linecap="round" stroke-linejoin="round" stroke-width="0.75"/>
        <path id="Trazado_663" data-name="Trazado 663" d="M217.77,253.73c1.273,8.075,2.11,15.1-6.475,19.061s-6.911,11.822,1.128,14.223" transform="translate(-187.251 -208.954)" fill="none" stroke="#ef8a66" stroke-linecap="round" stroke-linejoin="round" stroke-width="0.75"/>
        <path id="Trazado_664" data-name="Trazado 664" d="M214.452,262.582c-3.237,4.365-19.861-3.383-16.878-9.239C199.429,249.669,220.163,254.761,214.452,262.582Z" transform="translate(-153.704 -213.186)" fill="#d39933"/>
        <path id="Trazado_665" data-name="Trazado 665" d="M205.59,257.713c4.365,1.819,13.2.509,13.2-2.146s-5.165-4.8-9.53-4.947C208.1,252.766,206.863,255.131,205.59,257.713Z" transform="translate(-187.511 -217.157)" fill="#d39933"/>
        <path id="Trazado_666" data-name="Trazado 666" d="M210.236,276.56a8.621,8.621,0,0,0,9.276.182c3.929-3.019,3.347-10.476-1.382-16.7-.546-.655-1.091-1.309-1.637-1.855q-1.819,4.329-3.383,8.839a85.448,85.448,0,0,0-2.874,9.531Z" transform="translate(-207.726 -197.191)" fill="#f4af90"/>
      </g>
      <path id="collar" d="M256.721,279.36c9.13-2,20.952,2.328,22.3,8.039s2.874,53.29-7.748,53.436-28.337-21.5-37.576-4.438c-11.458,21.134-15.06-6.729-29.792,7.566-5.2,5.056-11.458,15.278-17.9,7.275s-11.24-36.376-9.239-41.032,6.948-10.367,13.2-9.2c4.22.764,10.913,29.828,33.5,31.028,4.656.255,36.085-32.738,37.976-39.467S256.721,279.36,256.721,279.36Z" transform="translate(225.437 -142.662)" fill="#fff"/>
    </g>
  </g>
</svg>
