<svg xmlns="http://www.w3.org/2000/svg" width="764" height="764" viewBox="0 0 764 764">
  <g id="Grupo_1832" data-name="Grupo 1832" transform="translate(16258 9318)">
    <rect id="Rectángulo_195" data-name="Rectángulo 195" width="764" height="764" transform="translate(-16258 -9318)" fill="none"/>
    <g id="Grupo_1831" data-name="Grupo 1831" transform="translate(-16139.632 -9167.574)">
      <g id="Grupo_1829" data-name="Grupo 1829" transform="translate(0 0)">
        <path id="Trazado_684" data-name="Trazado 684" d="M-18127.437-9189.641s-242.652,4.457-242.652,242.652" transform="translate(18421.875 9189.641)" fill="none" stroke="#000" stroke-linecap="round" stroke-width="4"/>
        <path id="Trazado_685" data-name="Trazado 685" d="M-18211.375-9189.641s-158.715,3.471-158.715,188.969" transform="translate(18436.744 9224.401)" fill="none" stroke="#000" stroke-linecap="round" stroke-width="4"/>
        <path id="Trazado_686" data-name="Trazado 686" d="M-18456.691-9048.35s52.59,51.617,53.9,77.723,45.262-98.914,65.168-77.723" transform="translate(18456.691 9272.078)" fill="none" stroke="#000" stroke-width="4"/>
        <path id="Trazado_687" data-name="Trazado 687" d="M-18456.691-9048.641s46.316,45.459,47.473,68.453,39.863-87.117,57.4-68.453" transform="translate(18463.793 9256.551)" fill="none" stroke="#000" stroke-width="4"/>
      </g>
      <g id="Grupo_1830" data-name="Grupo 1830" transform="translate(527.252 463.134) rotate(180)">
        <path id="Trazado_684-2" data-name="Trazado 684" d="M242.654,0S0,4.458,0,242.653" transform="translate(51.785 0)" fill="none" stroke="#000" stroke-linecap="round" stroke-width="4"/>
        <path id="Trazado_685-2" data-name="Trazado 685" d="M158.718,0S0,3.47,0,188.968" transform="translate(66.653 34.76)" fill="none" stroke="#000" stroke-linecap="round" stroke-width="4"/>
        <path id="Trazado_686-2" data-name="Trazado 686" d="M0,2.431S52.589,54.048,53.9,80.153s45.26-98.913,65.168-77.722" transform="translate(0 221.297)" fill="none" stroke="#000" stroke-width="4"/>
        <path id="Trazado_687-2" data-name="Trazado 687" d="M0,2.141S46.316,47.6,47.474,70.594s39.862-87.116,57.4-68.452" transform="translate(7.1 205.77)" fill="none" stroke="#000" stroke-width="4"/>
      </g>
    </g>
  </g>
</svg>
